<?xml version="1.0" standalone="no"?>
<!DOCTYPE svg PUBLIC "-//W3C//DTD SVG 20010904//EN"
 "http://www.w3.org/TR/2001/REC-SVG-20010904/DTD/svg10.dtd">
<svg version="1.0" xmlns="http://www.w3.org/2000/svg"
 width="512.000000pt" height="512.000000pt" viewBox="0 0 512.000000 512.000000"
 preserveAspectRatio="xMidYMid meet">

<g transform="translate(0.000000,512.000000) scale(0.100000,-0.100000)"
fill="#000000" stroke="none">
<path d="M2814 4621 c4 -6 51 -38 104 -71 125 -77 157 -103 150 -122 -5 -13
-49 -16 -300 -21 -320 -6 -448 -19 -643 -67 -344 -83 -612 -236 -876 -499
-132 -133 -220 -248 -334 -434 -92 -152 -116 -169 -135 -95 -22 84 -41 137
-56 149 -12 10 -20 -1 -50 -66 -69 -150 -121 -336 -144 -518 l-10 -79 35 -45
c19 -25 64 -103 100 -174 62 -122 80 -148 92 -135 3 3 9 45 14 93 4 48 13 140
19 203 36 382 162 688 402 975 263 316 626 536 1014 614 282 57 646 55 956 -5
221 -43 370 -93 610 -205 69 -32 129 -59 132 -59 19 0 -2 38 -61 111 -85 105
-133 185 -133 221 0 25 -7 31 -57 54 -87 39 -276 99 -385 123 -187 40 -456 72
-444 52z"/>
<path d="M2465 4319 c-513 -48 -977 -308 -1284 -721 -316 -424 -409 -1012
-221 -1394 58 -117 160 -224 212 -224 10 0 4 30 -23 113 -64 192 -74 257 -73
482 0 167 4 217 23 305 65 307 184 523 411 751 310 311 682 459 1157 459 477
0 945 -184 1298 -513 l70 -65 198 190 c108 105 197 194 197 198 0 3 -18 21
-39 38 l-39 31 -72 -20 c-40 -11 -116 -40 -170 -64 -137 -63 -167 -61 -274 24
-388 307 -883 455 -1371 410z"/>
<path d="M2850 3972 c0 -5 14 -30 32 -56 39 -59 35 -62 -86 -71 -100 -8 -159
-23 -94 -24 78 -2 278 -33 392 -61 66 -17 129 -28 140 -24 12 3 46 32 77 64
l55 59 -55 20 c-84 31 -232 68 -319 81 -42 6 -92 13 -109 16 -18 3 -33 1 -33
-4z"/>
<path d="M2565 3754 c-16 -2 -66 -9 -110 -15 -370 -50 -726 -313 -891 -657
-56 -118 -85 -238 -91 -388 -9 -214 26 -362 106 -445 26 -27 55 -49 64 -49 9
0 17 1 17 3 0 1 -12 47 -26 102 -49 192 -42 423 17 597 107 311 380 566 709
661 299 87 645 50 1017 -109 57 -24 108 -44 114 -44 12 0 9 303 -3 316 -4 3
-18 0 -31 -9 -74 -48 -209 -59 -322 -27 -162 47 -458 80 -570 64z"/>
<path d="M1485 3115 c-26 -30 -55 -55 -64 -55 -9 0 -29 19 -45 41 -15 22 -33
38 -39 36 -16 -5 -55 -107 -83 -215 -26 -100 -50 -308 -40 -345 3 -12 19 -30
35 -39 16 -9 51 -44 77 -77 26 -34 51 -61 56 -61 4 0 8 53 8 118 0 199 34 373
110 558 21 52 37 94 35 94 -2 0 -25 -25 -50 -55z"/>
<path d="M4532 2506 c-17 -152 54 -135 -570 -139 -295 -2 -554 -7 -574 -12
-58 -11 -103 10 -179 85 l-69 67 0 -73 0 -73 38 -10 c22 -6 291 -12 685 -14
l648 -3 25 35 c13 20 47 71 75 113 27 43 62 86 76 98 l26 20 -85 0 -85 0 -11
-94z"/>
<path d="M4745 2456 c-23 -23 -71 -66 -108 -95 -55 -44 -67 -58 -72 -89 -20
-137 -51 -273 -85 -373 -153 -460 -507 -842 -938 -1013 -397 -158 -1055 -177
-1551 -45 -279 74 -487 182 -821 427 -136 99 -201 134 -241 130 l-29 -3 65
-86 c82 -109 244 -274 355 -361 216 -168 461 -287 737 -358 470 -122 1127 -98
1523 54 378 147 724 440 938 797 114 190 202 409 236 585 20 107 38 322 34
406 l-3 67 -40 -43z"/>
<path d="M3341 2263 c-88 -50 -201 -150 -201 -177 0 -14 48 -16 514 -16 l515
0 7 46 c8 58 0 111 -23 137 -43 48 -68 51 -408 55 l-320 3 -84 -48z"/>
<path d="M4304 1995 c-27 -19 -77 -49 -110 -66 -56 -27 -64 -35 -87 -87 -14
-31 -24 -58 -23 -60 2 -1 42 3 88 9 102 15 123 10 114 -29 -13 -57 -118 -250
-180 -333 -256 -339 -638 -540 -1115 -589 -239 -24 -538 3 -619 56 -31 21 -20
33 82 89 98 53 127 74 106 75 -111 4 -376 61 -522 113 l-97 35 -48 -25 c-46
-24 -54 -25 -166 -19 -110 6 -118 5 -115 -11 5 -28 133 -118 243 -173 273
-134 557 -187 948 -177 228 5 375 25 542 73 422 121 766 408 966 806 56 112
81 205 77 286 -4 71 -17 75 -84 27z"/>
<path d="M1513 1752 c-30 -19 191 -236 344 -340 442 -297 1069 -334 1576 -92
l67 33 0 82 c0 45 -3 96 -6 113 l-6 30 -52 -42 c-70 -57 -215 -130 -317 -160
-154 -44 -285 -59 -469 -53 -326 11 -567 95 -879 305 -117 79 -212 132 -236
132 -5 0 -15 -4 -22 -8z"/>
<path d="M3429 1731 c-37 -24 -56 -46 -93 -114 -25 -47 -46 -88 -46 -91 0 -32
92 60 154 153 62 95 61 99 -15 52z"/>
<path d="M2060 1684 c-19 -11 -43 -13 -99 -8 -73 6 -73 6 -59 -15 8 -12 35
-37 60 -56 174 -136 455 -226 698 -224 101 1 97 7 -18 30 -35 6 -73 19 -84 28
-19 16 -19 17 11 55 17 22 29 41 27 44 -3 2 -41 10 -84 18 -104 18 -226 57
-331 105 -94 44 -87 42 -121 23z"/>
</g>
</svg>
